<?xml version="1.0" ?><svg id="Layer_1" style="enable-background:new 0 0 24 24;" version="1.1" viewBox="0 0 24 24" xml:space="preserve" xmlns="http://www.w3.org/2000/svg" xmlns:xlink="http://www.w3.org/1999/xlink"><style type="text/css">
	.st0{fill:none;stroke:#000000;stroke-width:1.6724;stroke-linecap:round;stroke-linejoin:round;stroke-miterlimit:10;}
	.st1{fill:none;stroke:#000000;stroke-width:1.5;stroke-linecap:round;stroke-linejoin:round;stroke-miterlimit:10;}
	.st2{fill:none;stroke:#000000;stroke-width:1.5;stroke-linejoin:round;stroke-miterlimit:10;}
</style><g><circle class="st1" cx="12" cy="12" r="11.3"/><g><path class="st1" d="M9.2,14l-3.7,0.9c-0.5,0.1-0.9-0.4-0.9-1l0-0.5c0-2.8,3.3-5.1,7.5-5.1c4.1,0,7.5,2.3,7.5,5.1l0,0.5    c0,0.6-0.5,1.1-0.9,1L14.8,14c-0.4-0.1-0.6-0.5-0.6-0.9l0-1.3C14.1,11.6,13.3,11,12,11c-1.3,0-2.1,0.6-2.2,0.9l0,1.3    C9.8,13.5,9.5,13.9,9.2,14z"/></g></g></svg>